<?xml version="1.0" encoding="utf-8"?>
<!-- Generator: Adobe Illustrator 23.0.3, SVG Export Plug-In . SVG Version: 6.00 Build 0)  -->
<svg version="1.1" id="Calque_1" xmlns="http://www.w3.org/2000/svg" xmlns:xlink="http://www.w3.org/1999/xlink" x="0px" y="0px"
	 viewBox="0 0 200 200" style="enable-background:new 0 0 200 200;" xml:space="preserve">
<style type="text/css">
	.st0{fill:none;}
	.st1{fill:#CF9B41;}
</style>
<path class="st0" d="M62,88h24v24H62V88z"/>
<path class="st1" d="M97.5,73C82.32,73,70,84.87,70,99.5S82.32,126,97.5,126S125,114.13,125,99.5S112.68,73,97.5,73z M94.75,120.51
	c-10.86-1.3-19.25-10.2-19.25-21.01c0-1.64,0.22-3.21,0.58-4.74l13.17,12.69v2.65c0,2.92,2.47,5.3,5.5,5.3V120.51z M113.72,113.78
	c-0.72-2.15-2.75-3.68-5.22-3.68h-2.75v-7.95c0-1.46-1.24-2.65-2.75-2.65H86.5v-5.3H92c1.51,0,2.75-1.19,2.75-2.65v-5.3h5.5
	c3.03,0,5.5-2.39,5.5-5.3v-1.09c8.06,3.15,13.75,10.76,13.75,19.64C119.5,105.01,117.3,110.02,113.72,113.78z"/>
<path class="st0" d="M86,43h24v24H86V43z"/>
<path class="st1" d="M103,55H89c-1.1,0-2,0.89-2,2v9h2c0,1.65,1.34,3,3,3s3-1.35,3-3h5.5c0,1.65,1.34,3,3,3s3-1.35,3-3h2.5v-5
	L103,55z M89,61v-4h4v4H89z M92,67.5c-0.83,0-1.5-0.67-1.5-1.5s0.67-1.5,1.5-1.5s1.5,0.67,1.5,1.5S92.83,67.5,92,67.5z M99,61h-4v-4
	h4V61z M103.5,67.5c-0.83,0-1.5-0.67-1.5-1.5s0.67-1.5,1.5-1.5s1.5,0.67,1.5,1.5S104.33,67.5,103.5,67.5z M101,61v-4h1l4,4H101z"/>
<path class="st1" d="M58.34,76.22l-6.85,12.21c-0.54,0.96-0.2,2.18,0.77,2.72l7.85,4.4l0.98-1.74c1.44,0.81,3.27,0.3,4.08-1.15
	c0.81-1.45,0.29-3.28-1.15-4.08l2.69-4.8c1.44,0.81,3.27,0.3,4.08-1.15c0.81-1.45,0.29-3.28-1.15-4.08l1.22-2.18l-4.36-2.45
	L58.34,76.22z M56.73,91.36l-3.49-1.96l1.96-3.49l3.49,1.96L56.73,91.36z M63.86,91.92c-0.41,0.72-1.32,0.98-2.04,0.57
	c-0.72-0.41-0.98-1.32-0.57-2.04s1.32-0.98,2.04-0.57C64.01,90.29,64.27,91.2,63.86,91.92z M61.62,82.64l-1.96,3.49l-3.49-1.96
	l1.96-3.49L61.62,82.64z M69.49,81.89c-0.41,0.72-1.32,0.98-2.04,0.57s-0.98-1.32-0.57-2.04c0.41-0.72,1.32-0.98,2.04-0.57
	C69.64,80.26,69.89,81.17,69.49,81.89z M62.6,80.89l-3.49-1.96l0.49-0.87l5.45-1.53L62.6,80.89z"/>
<path class="st1" d="M60.59,127.83l10.37,9.4c0.82,0.74,2.08,0.68,2.83-0.14l6.04-6.67l-1.48-1.34c1.11-1.22,1.02-3.12-0.21-4.24
	c-1.23-1.11-3.13-1.01-4.24,0.21l-4.08-3.69c1.11-1.22,1.02-3.12-0.21-4.24s-3.13-1.01-4.24,0.21l-1.85-1.68l-3.36,3.7L60.59,127.83
	z M75,132.78l-2.69,2.96l-2.96-2.69l2.69-2.96L75,132.78z M77.14,125.95c0.62,0.56,0.66,1.5,0.1,2.12c-0.56,0.62-1.5,0.66-2.12,0.1
	c-0.62-0.56-0.66-1.5-0.1-2.12C75.58,125.44,76.52,125.4,77.14,125.95z M67.59,126.07l2.96,2.69l-2.69,2.96l-2.96-2.69L67.59,126.07
	z M68.62,118.23c0.62,0.56,0.66,1.5,0.1,2.12c-0.56,0.62-1.5,0.66-2.12,0.1c-0.62-0.56-0.66-1.5-0.1-2.12
	C67.06,117.72,68,117.67,68.62,118.23z M66.11,124.73l-2.69,2.96l-0.74-0.67l-0.28-5.65L66.11,124.73z"/>
<path class="st1" d="M125.99,135.55l10.38-9.4c0.82-0.74,0.89-2,0.14-2.82l-6.04-6.67l-1.48,1.34c-1.11-1.22-3.01-1.32-4.24-0.21
	c-1.23,1.11-1.32,3.01-0.21,4.24l-4.08,3.69c-1.11-1.22-3.01-1.32-4.24-0.21s-1.32,3.01-0.21,4.24l-1.85,1.68l3.36,3.71
	L125.99,135.55z M132.34,121.7l2.68,2.97l-2.97,2.68l-2.68-2.97L132.34,121.7z M125.76,118.9c0.62-0.56,1.56-0.51,2.12,0.11
	c0.56,0.62,0.51,1.56-0.11,2.12s-1.56,0.51-2.12-0.11S125.14,119.45,125.76,118.9z M124.93,128.41l2.97-2.68l2.68,2.97l-2.97,2.68
	L124.93,128.41z M117.23,126.61c0.62-0.56,1.56-0.51,2.12,0.11c0.56,0.62,0.51,1.56-0.11,2.12c-0.62,0.56-1.56,0.51-2.12-0.11
	C116.57,128.12,116.62,127.17,117.23,126.61z M123.45,129.75l2.68,2.97l-0.74,0.67l-5.65-0.28L123.45,129.75z"/>
<path class="st1" d="M142.34,88.12l-5.08-13.05c-0.4-1.02-1.56-1.54-2.59-1.14l-8.39,3.27l0.73,1.86c-1.54,0.6-2.31,2.34-1.71,3.88
	c0.6,1.55,2.35,2.31,3.88,1.71l2,5.12c-1.54,0.6-2.31,2.34-1.71,3.88c0.6,1.55,2.35,2.31,3.88,1.71l0.91,2.33l4.66-1.81
	L142.34,88.12z M131.67,77.25l3.73-1.45l1.45,3.73l-3.73,1.45L131.67,77.25z M126.7,82.41c-0.3-0.77,0.08-1.64,0.85-1.94
	c0.77-0.3,1.64,0.08,1.94,0.85c0.3,0.77-0.08,1.64-0.85,1.94C127.87,83.56,127,83.18,126.7,82.41z M135.29,86.57l-1.45-3.73
	l3.73-1.45l1.45,3.73L135.29,86.57z M130.87,93.12c-0.3-0.77,0.08-1.64,0.85-1.94c0.77-0.3,1.64,0.08,1.94,0.85
	c0.3,0.77-0.08,1.64-0.85,1.94S131.17,93.89,130.87,93.12z M136.02,88.43l3.73-1.45l0.36,0.93l-2.28,5.18L136.02,88.43z"/>
</svg>
